<svg width="121" height="194" viewBox="0 0 121 194" fill="none" xmlns="http://www.w3.org/2000/svg">
<path d="M11.5001 110.5C48.5001 125.5 53.5001 161.5 24.0001 179V185H77.5001V179C49.0001 163.5 51.0001 128 90.0001 110.5C70.4016 114.389 61.2392 118.699 51.0001 133.5C37.0813 117.345 27.9688 114.517 11.5001 110.5Z" fill="#FCB02D" stroke="#FCB02D"/>
<path d="M77.5 179C87 183 94.5 181 100 177C100.5 187 91.5 184.5 77.5001 185L77.5 179Z" fill="#FCB02D" stroke="#FCB02D"/>
<path d="M12.0018 111L5.07846 138.162C1.67218 158.147 20.0005 158 17 138.162L12.0018 111Z" fill="#FCB02D" stroke="#FCB02D"/>
<path d="M107.947 193C103.947 193 102.947 191 102.447 189L100.947 178.5C99.9467 169.5 99.4467 173.5 100.947 165.5C101.118 164.216 103.447 169 103.947 170.5C104.447 174.5 104.947 176.5 105.447 180L116.447 157H117.947L109.947 179L119.947 191L119.447 192.5L105.447 180C105.746 181.774 108.694 193 107.947 193Z" fill="#FCB02D"/>
<path d="M105.447 180C104.947 176.5 104.447 174.5 103.947 170.5C103.447 169 101.118 164.216 100.947 165.5C99.4467 173.5 99.9467 169.5 100.947 178.5L102.447 189C102.947 191 103.947 193 107.947 193C108.694 193 105.746 181.774 105.447 180ZM105.447 180L116.447 157H117.947L109.947 179L119.947 191L119.447 192.5L105.447 180Z" stroke="#FCB02D"/>
<path d="M6 97C22.3753 107.445 35 109.5 44.5 104C58 95.5 61 70.5 42.5 59C26 51 12.5 69 1.99996 84.5C-6.4373e-05 88.5 2.5 94.7676 6 97Z" fill="#3AA857" stroke="#3AA857"/>
<path d="M94 76C79.5904 62.8999 72.5 51.5 56.0032 59.9637C42.5032 68.4638 39.5032 93.4638 58.0032 104.964C69.5 110 78 106.5 96.5 97C103 93.5 99.4999 81 94 76Z" fill="#20C8EF" stroke="#20C8EF"/>
<path d="M26.4999 50.5C33.9999 52.5 60.4999 53 72.5 50.5C99 43.5 74.5 19 59.5 3.99999C46.9999 -9.49999 24 21.5 17.4999 36C15 40.5 19.318 48.5848 26.4999 50.5Z" fill="#A9C73B" stroke="#A9C73B"/>
</svg>
